<svg width="36" height="36" viewBox="0 0 36 36" fill="none" xmlns="http://www.w3.org/2000/svg">
<circle cx="18" cy="18" r="18" fill="#F2994A"/>
<path d="M27.17 8.06C26.4532 7.93653 25.7274 7.87298 25 7.87C22.5184 7.86796 20.0885 8.57957 18 9.92C15.9062 8.59717 13.4767 7.90303 11 7.92C10.2727 7.92298 9.54683 7.98653 8.83002 8.11C8.59523 8.15048 8.3826 8.27346 8.23044 8.45679C8.07827 8.64013 7.99656 8.87177 8.00002 9.11V21.11C7.99788 21.2569 8.02815 21.4025 8.08867 21.5364C8.1492 21.6703 8.23849 21.7893 8.3502 21.8847C8.4619 21.9802 8.59328 22.0499 8.73498 22.0888C8.87668 22.1278 9.02522 22.135 9.17002 22.11C10.603 21.8619 12.0712 21.9031 13.4881 22.2311C14.905 22.5591 16.2418 23.1674 17.42 24.02L17.54 24.09H17.65C17.7609 24.1362 17.8799 24.16 18 24.16C18.1202 24.16 18.2391 24.1362 18.35 24.09H18.46L18.58 24.02C19.75 23.1483 21.083 22.5203 22.5002 22.1734C23.9173 21.8264 25.3897 21.7674 26.83 22C26.9748 22.025 27.1234 22.0178 27.2651 21.9788C27.4068 21.9399 27.5381 21.8702 27.6498 21.7747C27.7616 21.6793 27.8508 21.5603 27.9114 21.4264C27.9719 21.2925 28.0022 21.1469 28 21V9C27.9896 8.77215 27.9016 8.55471 27.7507 8.38374C27.5997 8.21276 27.3948 8.09854 27.17 8.06ZM17 21.35C15.1499 20.3767 13.0905 19.8687 11 19.87H10V9.87C10.3331 9.8508 10.667 9.8508 11 9.87C13.1334 9.86764 15.2202 10.4937 17 11.67V21.35ZM26 19.91H25C22.9095 19.9087 20.8501 20.4167 19 21.39V11.67C20.7798 10.4937 22.8666 9.86764 25 9.87C25.3331 9.8508 25.667 9.8508 26 9.87V19.91ZM27.17 24.06C26.4532 23.9365 25.7274 23.873 25 23.87C22.5184 23.868 20.0885 24.5796 18 25.92C15.9115 24.5796 13.4817 23.868 11 23.87C10.2727 23.873 9.54683 23.9365 8.83002 24.06C8.69985 24.0807 8.57505 24.1268 8.46279 24.1959C8.35053 24.265 8.25302 24.3555 8.17589 24.4624C8.09876 24.5693 8.04351 24.6903 8.01333 24.8186C7.98315 24.9469 7.97862 25.0799 8.00002 25.21C8.05084 25.4697 8.20251 25.6986 8.42181 25.8467C8.64111 25.9948 8.91016 26.0499 9.17002 26C10.603 25.7519 12.0712 25.7931 13.4881 26.1211C14.905 26.4491 16.2418 27.0574 17.42 27.91C17.5894 28.0306 17.7921 28.0954 18 28.0954C18.2079 28.0954 18.4107 28.0306 18.58 27.91C19.7582 27.0574 21.0951 26.4491 22.512 26.1211C23.9288 25.7931 25.397 25.7519 26.83 26C27.0899 26.0499 27.3589 25.9948 27.5782 25.8467C27.7975 25.6986 27.9492 25.4697 28 25.21C28.0214 25.0799 28.0169 24.9469 27.9867 24.8186C27.9565 24.6903 27.9013 24.5693 27.8242 24.4624C27.747 24.3555 27.6495 24.265 27.5373 24.1959C27.425 24.1268 27.3002 24.0807 27.17 24.06Z" fill="white"/>
</svg>
