<svg width="36" height="36" viewBox="0 0 36 36" fill="none" xmlns="http://www.w3.org/2000/svg">
<circle cx="18" cy="18" r="18" fill="#F2C94C"/>
<path d="M14.51 18.48C14.3122 18.48 14.1189 18.5386 13.9544 18.6485C13.79 18.7584 13.6618 18.9146 13.5861 19.0973C13.5104 19.28 13.4906 19.4811 13.5292 19.6751C13.5678 19.8691 13.663 20.0473 13.8029 20.1871C13.9427 20.327 14.1209 20.4222 14.3149 20.4608C14.5089 20.4994 14.71 20.4796 14.8927 20.4039C15.0754 20.3282 15.2316 20.2 15.3415 20.0356C15.4513 19.8711 15.51 19.6778 15.51 19.48C15.51 19.2148 15.4046 18.9604 15.2171 18.7729C15.0296 18.5854 14.7752 18.48 14.51 18.48ZM14.51 14C14.3122 14 14.1189 14.0586 13.9544 14.1685C13.79 14.2784 13.6618 14.4346 13.5861 14.6173C13.5104 14.8 13.4906 15.0011 13.5292 15.1951C13.5678 15.3891 13.663 15.5673 13.8029 15.7071C13.9427 15.847 14.1209 15.9422 14.3149 15.9808C14.5089 16.0194 14.71 15.9996 14.8927 15.9239C15.0754 15.8482 15.2316 15.72 15.3415 15.5556C15.4513 15.3911 15.51 15.1978 15.51 15C15.51 14.7348 15.4046 14.4804 15.2171 14.2929C15.0296 14.1054 14.7752 14 14.51 14ZM18 16C17.7348 16 17.4804 16.1054 17.2929 16.2929C17.1054 16.4804 17 16.7348 17 17V18C17 18.2652 17.1054 18.5196 17.2929 18.7071C17.4804 18.8946 17.7348 19 18 19C18.2652 19 18.5196 18.8946 18.7071 18.7071C18.8946 18.5196 19 18.2652 19 18V17C19 16.7348 18.8946 16.4804 18.7071 16.2929C18.5196 16.1054 18.2652 16 18 16ZM26.5 14.57C26.155 14.3715 25.774 14.2437 25.3791 14.1939C24.9843 14.1441 24.5834 14.1734 24.2 14.28C23.8009 14.3869 23.4293 14.5778 23.11 14.84L11.51 8.13C11.358 8.04223 11.1855 7.99603 11.01 7.99603C10.8345 7.99603 10.662 8.04223 10.51 8.13C10.3555 8.21683 10.2269 8.34314 10.1373 8.496C10.0477 8.64887 10.0003 8.8228 10 9V22.17C9.40985 22.3691 8.89817 22.7504 8.53872 23.259C8.17927 23.7676 7.99063 24.3773 8 25C7.99972 25.782 8.30478 26.5332 8.85021 27.0935C9.39563 27.6539 10.1383 27.9791 10.92 28H11.5C14.7767 27.9923 17.9931 27.1177 20.8225 25.465C23.6519 23.8123 25.9937 21.4404 27.61 18.59C27.9833 17.908 28.0772 17.1077 27.872 16.3578C27.6668 15.6079 27.1785 14.9669 26.51 14.57H26.5ZM12 10.73L21.89 16.44C20.7928 18.0772 19.326 19.4335 17.608 20.3993C15.89 21.3651 13.969 21.9135 12 22V10.73ZM25.87 17.61C24.3855 20.2257 22.2174 22.3883 19.598 23.8662C16.9786 25.3441 14.0065 26.0817 11 26C10.7348 26 10.4804 25.8946 10.2929 25.7071C10.1054 25.5196 10 25.2652 10 25C9.99921 24.866 10.0254 24.7332 10.0769 24.6095C10.1284 24.4859 10.2043 24.3738 10.3 24.28C10.4879 24.0989 10.7391 23.9984 11 24H11.51C14.0777 23.999 16.5991 23.3161 18.8164 22.0212C21.0337 20.7263 22.8674 18.8658 24.13 16.63C24.1907 16.5203 24.2736 16.4245 24.3735 16.3487C24.4734 16.273 24.588 16.2189 24.71 16.19C24.9621 16.1208 25.2314 16.1531 25.46 16.28C25.6894 16.4033 25.8617 16.6113 25.9401 16.8597C26.0186 17.1081 25.997 17.3773 25.88 17.61H25.87Z" fill="white"/>
</svg>
