<svg width="36" height="36" viewBox="0 0 36 36" fill="none" xmlns="http://www.w3.org/2000/svg">
<circle cx="18" cy="18" r="18" fill="#BB6BD9"/>
<path d="M27.66 16.25L18.66 8.25002C18.4775 8.0897 18.2429 8.00128 18 8.00128C17.7571 8.00128 17.5225 8.0897 17.34 8.25002L8.34 16.25C8.18703 16.3853 8.07916 16.5642 8.0309 16.7627C7.98263 16.9611 7.99627 17.1696 8.07 17.36C8.14252 17.548 8.2701 17.7096 8.43605 17.8238C8.60199 17.938 8.79856 17.9994 9 18H10V27C10 27.2652 10.1054 27.5196 10.2929 27.7071C10.4804 27.8947 10.7348 28 11 28H25C25.2652 28 25.5196 27.8947 25.7071 27.7071C25.8946 27.5196 26 27.2652 26 27V18H27C27.2014 17.9994 27.398 17.938 27.5639 17.8238C27.7299 17.7096 27.8575 17.548 27.93 17.36C28.0037 17.1696 28.0174 16.9611 27.9691 16.7627C27.9208 16.5642 27.813 16.3853 27.66 16.25ZM19 26H17V23C17 22.7348 17.1054 22.4804 17.2929 22.2929C17.4804 22.1054 17.7348 22 18 22C18.2652 22 18.5196 22.1054 18.7071 22.2929C18.8946 22.4804 19 22.7348 19 23V26ZM24 26H21V23C21 22.2044 20.6839 21.4413 20.1213 20.8787C19.5587 20.3161 18.7956 20 18 20C17.2043 20 16.4413 20.3161 15.8787 20.8787C15.3161 21.4413 15 22.2044 15 23V26H12V18H24V26ZM11.63 16L18 10.34L24.37 16H11.63Z" fill="white"/>
</svg>
