<svg width="36" height="36" viewBox="0 0 36 36" fill="none" xmlns="http://www.w3.org/2000/svg">
<circle cx="18" cy="18" r="18" fill="#56CCF2"/>
<path d="M12.88 18.88C12.5853 19.1546 12.3488 19.4859 12.1849 19.8538C12.0209 20.2218 11.9327 20.6191 11.9256 21.0219C11.9185 21.4247 11.9926 21.8248 12.1435 22.1984C12.2944 22.5719 12.519 22.9113 12.8039 23.1962C13.0887 23.481 13.4281 23.7056 13.8016 23.8565C14.1752 24.0074 14.5753 24.0815 14.9781 24.0744C15.3809 24.0673 15.7782 23.9791 16.1462 23.8151C16.5142 23.6512 16.8454 23.4147 17.12 23.12C17.6818 22.5575 17.9974 21.795 17.9974 21C17.9974 20.205 17.6818 19.4425 17.12 18.88C16.5477 18.337 15.7889 18.0343 15 18.0343C14.2111 18.0343 13.4523 18.337 12.88 18.88ZM15.71 21.71C15.617 21.8037 15.5064 21.8781 15.3846 21.9289C15.2627 21.9797 15.132 22.0058 15 22.0058C14.868 22.0058 14.7373 21.9797 14.6154 21.9289C14.4936 21.8781 14.383 21.8037 14.29 21.71C14.1963 21.617 14.1219 21.5064 14.0711 21.3846C14.0203 21.2627 13.9942 21.132 13.9942 21C13.9942 20.868 14.0203 20.7373 14.0711 20.6154C14.1219 20.4936 14.1963 20.383 14.29 20.29C14.383 20.1963 14.4936 20.1219 14.6154 20.0711C14.7373 20.0203 14.868 19.9942 15 19.9942C15.132 19.9942 15.2627 20.0203 15.3846 20.0711C15.5064 20.1219 15.617 20.1963 15.71 20.29C15.8037 20.383 15.8781 20.4936 15.9289 20.6154C15.9797 20.7373 16.0058 20.868 16.0058 21C16.0058 21.132 15.9797 21.2627 15.9289 21.3846C15.8781 21.5064 15.8037 21.617 15.71 21.71ZM15 14C14.7348 14 14.4804 14.1054 14.2929 14.2929C14.1054 14.4804 14 14.7348 14 15C14 15.2652 14.1054 15.5196 14.2929 15.7071C14.4804 15.8946 14.7348 16 15 16C16.3261 16 17.5979 16.5268 18.5355 17.4645C19.4732 18.4021 20 19.6739 20 21C20 21.2652 20.1054 21.5196 20.2929 21.7071C20.4804 21.8946 20.7348 22 21 22C21.2652 22 21.5196 21.8946 21.7071 21.7071C21.8946 21.5196 22 21.2652 22 21C22 19.1435 21.2625 17.363 19.9498 16.0503C18.637 14.7375 16.8565 14 15 14ZM15 10C14.7348 10 14.4804 10.1054 14.2929 10.2929C14.1054 10.4804 14 10.7348 14 11C14 11.2652 14.1054 11.5196 14.2929 11.7071C14.4804 11.8946 14.7348 12 15 12C17.387 12 19.6761 12.9482 21.364 14.636C23.0518 16.3239 24 18.6131 24 21C24 21.2652 24.1054 21.5196 24.2929 21.7071C24.4804 21.8946 24.7348 22 25 22C25.2652 22 25.5196 21.8946 25.7071 21.7071C25.8946 21.5196 26 21.2652 26 21C26 18.0826 24.8411 15.2847 22.7782 13.2218C20.7153 11.1589 17.9174 10 15 10Z" fill="white"/>
</svg>
